<svg width="32" height="32" viewBox="0 0 32 32" fill="none" xmlns="http://www.w3.org/2000/svg">
  <rect width="32" height="32" rx="8" fill="#5b5bd6"/>
  <g transform="translate(6 6) scale(1.0)" stroke="#ffffff" stroke-width="1.33333" stroke-linecap="round" stroke-linejoin="round">
    <path d="M10 15.8334V18.3334"/>
    <path d="M15.833 8.33325V9.99992C15.833 11.547 15.2184 13.0307 14.1244 14.1247C13.0305 15.2187 11.5468 15.8333 9.99965 15.8333C8.45256 15.8333 6.96883 15.2187 5.87486 14.1247C4.7809 13.0307 4.16632 11.547 4.16632 9.99992V8.33325"/>
    <path d="M12.4999 4.16681C12.4999 2.7861 11.3806 1.66681 9.99988 1.66681C8.61917 1.66681 7.49988 2.7861 7.49988 4.16681V10.0001C7.49988 11.3809 8.61917 12.5001 9.99988 12.5001C11.3806 12.5001 12.4999 11.3809 12.4999 10.0001V4.16681Z"/>
  </g>
</svg>
